<svg width="162" height="40" viewBox="0 0 172 50" fill="none" xmlns="http://www.w3.org/2000/svg">
<path d="M69 13.3608V49.1354H57.58V13.3608C56.6267 9.92552 53.6714 10.1168 53.6714 10.1168C53.6714 10.1168 50.7161 10.1168 49.7628 13.3608V36.2583C48.0469 50.5688 34.4662 49.9969 34.4662 49.9969C34.4662 49.9969 20.5915 50.378 19.1696 36.2583V13.3608C18.1129 9.92552 15.2697 10.1168 15.2697 10.1168C15.2697 10.1168 12.2024 10.1168 11.3697 13.3608V49.1354H0V13.3608C2.09728 -0.569264 15.2697 0.00330382 15.2697 0.00330382C15.2697 0.00330382 28.79 -0.569264 30.506 13.3608V36.2583C31.6499 40.4557 34.5099 39.8837 34.5099 39.8837C34.5099 39.8837 38.1324 39.8837 38.5138 36.2583V13.3608C40.6111 -0.378451 53.6714 0.00369997 53.6714 0.00369997C53.6714 0.00369997 66.9224 -0.569227 69 13.3608Z" fill="black"/>
<mask id="path-2-outside-1_6146_1042" maskUnits="userSpaceOnUse" x="69" y="21" width="104" height="28" fill="black">
<rect fill="white" x="69" y="21" width="104" height="28"/>
<path d="M80.494 23.046C81.91 23.046 83.2 23.268 84.364 23.712C85.528 24.156 86.524 24.792 87.352 25.62C88.192 26.448 88.84 27.456 89.296 28.644C89.764 29.82 89.998 31.146 89.998 32.622C89.998 34.11 89.764 35.454 89.296 36.654C88.84 37.842 88.192 38.856 87.352 39.696C86.524 40.524 85.528 41.166 84.364 41.622C83.2 42.066 81.91 42.288 80.494 42.288C79.066 42.288 77.764 42.066 76.588 41.622C75.424 41.166 74.416 40.524 73.564 39.696C72.724 38.856 72.07 37.842 71.602 36.654C71.146 35.454 70.918 34.11 70.918 32.622C70.918 31.146 71.146 29.82 71.602 28.644C72.07 27.456 72.724 26.448 73.564 25.62C74.416 24.792 75.424 24.156 76.588 23.712C77.764 23.268 79.066 23.046 80.494 23.046ZM80.494 38.148C81.778 38.148 82.72 37.698 83.32 36.798C83.932 35.886 84.238 34.506 84.238 32.658C84.238 30.81 83.932 29.436 83.32 28.536C82.72 27.636 81.778 27.186 80.494 27.186C79.174 27.186 78.208 27.636 77.596 28.536C76.984 29.436 76.678 30.81 76.678 32.658C76.678 34.506 76.984 35.886 77.596 36.798C78.208 37.698 79.174 38.148 80.494 38.148ZM98.388 36.924C98.808 37.38 99.264 37.704 99.756 37.896C100.248 38.088 100.764 38.184 101.304 38.184C101.82 38.184 102.294 38.082 102.726 37.878C103.158 37.674 103.53 37.35 103.842 36.906C104.166 36.45 104.418 35.862 104.598 35.142C104.778 34.422 104.868 33.546 104.868 32.514C104.868 31.53 104.796 30.702 104.652 30.03C104.508 29.358 104.304 28.818 104.04 28.41C103.788 27.99 103.482 27.69 103.122 27.51C102.762 27.33 102.36 27.24 101.916 27.24C101.1 27.24 100.428 27.39 99.9 27.69C99.372 27.99 98.868 28.428 98.388 29.004V36.924ZM98.046 25.638C98.778 24.858 99.606 24.222 100.53 23.73C101.466 23.226 102.576 22.974 103.86 22.974C104.832 22.974 105.732 23.19 106.56 23.622C107.388 24.054 108.102 24.678 108.702 25.494C109.302 26.31 109.77 27.312 110.106 28.5C110.454 29.676 110.628 31.014 110.628 32.514C110.628 33.918 110.43 35.214 110.034 36.402C109.65 37.59 109.104 38.622 108.396 39.498C107.7 40.374 106.86 41.058 105.876 41.55C104.904 42.042 103.824 42.288 102.636 42.288C101.664 42.288 100.848 42.15 100.188 41.874C99.528 41.598 98.928 41.226 98.388 40.758V47.922H92.808V23.334H96.264C96.96 23.334 97.416 23.646 97.632 24.27L98.046 25.638ZM119.06 36.924C119.48 37.38 119.936 37.704 120.428 37.896C120.92 38.088 121.436 38.184 121.976 38.184C122.492 38.184 122.966 38.082 123.398 37.878C123.83 37.674 124.202 37.35 124.514 36.906C124.838 36.45 125.09 35.862 125.27 35.142C125.45 34.422 125.54 33.546 125.54 32.514C125.54 31.53 125.468 30.702 125.324 30.03C125.18 29.358 124.976 28.818 124.712 28.41C124.46 27.99 124.154 27.69 123.794 27.51C123.434 27.33 123.032 27.24 122.588 27.24C121.772 27.24 121.1 27.39 120.572 27.69C120.044 27.99 119.54 28.428 119.06 29.004V36.924ZM118.718 25.638C119.45 24.858 120.278 24.222 121.202 23.73C122.138 23.226 123.248 22.974 124.532 22.974C125.504 22.974 126.404 23.19 127.232 23.622C128.06 24.054 128.774 24.678 129.374 25.494C129.974 26.31 130.442 27.312 130.778 28.5C131.126 29.676 131.3 31.014 131.3 32.514C131.3 33.918 131.102 35.214 130.706 36.402C130.322 37.59 129.776 38.622 129.068 39.498C128.372 40.374 127.532 41.058 126.548 41.55C125.576 42.042 124.496 42.288 123.308 42.288C122.336 42.288 121.52 42.15 120.86 41.874C120.2 41.598 119.6 41.226 119.06 40.758V47.922H113.48V23.334H116.936C117.632 23.334 118.088 23.646 118.304 24.27L118.718 25.638ZM151.612 23.334V42H146.032V32.496C146.032 32.184 146.05 31.848 146.086 31.488C146.122 31.116 146.17 30.738 146.23 30.354C145.942 31.002 145.636 31.548 145.312 31.992C145.288 32.016 145.186 32.16 145.006 32.424C144.838 32.688 144.616 33.03 144.34 33.45C144.076 33.858 143.77 34.32 143.422 34.836C143.086 35.352 142.738 35.88 142.378 36.42C141.538 37.68 140.596 39.102 139.552 40.686C139.444 40.842 139.318 41.004 139.174 41.172C139.042 41.328 138.892 41.472 138.724 41.604C138.556 41.724 138.376 41.826 138.184 41.91C137.992 41.982 137.788 42.018 137.572 42.018H134.152V23.352H139.732V32.856C139.732 33.156 139.714 33.492 139.678 33.864C139.642 34.236 139.594 34.614 139.534 34.998C139.822 34.35 140.128 33.804 140.452 33.36C140.464 33.336 140.56 33.192 140.74 32.928C140.92 32.664 141.142 32.328 141.406 31.92C141.682 31.5 141.988 31.032 142.324 30.516C142.672 30 143.026 29.472 143.386 28.932C144.226 27.672 145.168 26.25 146.212 24.666C146.32 24.51 146.44 24.354 146.572 24.198C146.716 24.03 146.872 23.886 147.04 23.766C147.208 23.634 147.388 23.532 147.58 23.46C147.772 23.376 147.976 23.334 148.192 23.334H151.612ZM169.102 27.762C168.934 27.966 168.772 28.128 168.616 28.248C168.46 28.368 168.238 28.428 167.95 28.428C167.674 28.428 167.422 28.362 167.194 28.23C166.978 28.098 166.732 27.954 166.456 27.798C166.18 27.63 165.856 27.48 165.484 27.348C165.112 27.216 164.65 27.15 164.098 27.15C163.414 27.15 162.82 27.276 162.316 27.528C161.824 27.78 161.416 28.14 161.092 28.608C160.768 29.076 160.528 29.652 160.372 30.336C160.216 31.008 160.138 31.77 160.138 32.622C160.138 34.41 160.48 35.784 161.164 36.744C161.86 37.704 162.814 38.184 164.026 38.184C164.674 38.184 165.184 38.106 165.556 37.95C165.94 37.782 166.264 37.602 166.528 37.41C166.792 37.206 167.032 37.02 167.248 36.852C167.476 36.684 167.758 36.6 168.094 36.6C168.538 36.6 168.874 36.762 169.102 37.086L170.722 39.084C170.146 39.744 169.54 40.284 168.904 40.704C168.268 41.112 167.614 41.436 166.942 41.676C166.282 41.904 165.616 42.06 164.944 42.144C164.272 42.24 163.618 42.288 162.982 42.288C161.842 42.288 160.75 42.072 159.706 41.64C158.674 41.208 157.762 40.584 156.97 39.768C156.19 38.94 155.566 37.926 155.098 36.726C154.642 35.526 154.414 34.158 154.414 32.622C154.414 31.278 154.612 30.024 155.008 28.86C155.416 27.684 156.01 26.67 156.79 25.818C157.582 24.954 158.554 24.276 159.706 23.784C160.87 23.292 162.214 23.046 163.738 23.046C165.202 23.046 166.486 23.28 167.59 23.748C168.694 24.216 169.69 24.9 170.578 25.8L169.102 27.762Z"/>
</mask>
<path d="M80.494 23.046C81.91 23.046 83.2 23.268 84.364 23.712C85.528 24.156 86.524 24.792 87.352 25.62C88.192 26.448 88.84 27.456 89.296 28.644C89.764 29.82 89.998 31.146 89.998 32.622C89.998 34.11 89.764 35.454 89.296 36.654C88.84 37.842 88.192 38.856 87.352 39.696C86.524 40.524 85.528 41.166 84.364 41.622C83.2 42.066 81.91 42.288 80.494 42.288C79.066 42.288 77.764 42.066 76.588 41.622C75.424 41.166 74.416 40.524 73.564 39.696C72.724 38.856 72.07 37.842 71.602 36.654C71.146 35.454 70.918 34.11 70.918 32.622C70.918 31.146 71.146 29.82 71.602 28.644C72.07 27.456 72.724 26.448 73.564 25.62C74.416 24.792 75.424 24.156 76.588 23.712C77.764 23.268 79.066 23.046 80.494 23.046ZM80.494 38.148C81.778 38.148 82.72 37.698 83.32 36.798C83.932 35.886 84.238 34.506 84.238 32.658C84.238 30.81 83.932 29.436 83.32 28.536C82.72 27.636 81.778 27.186 80.494 27.186C79.174 27.186 78.208 27.636 77.596 28.536C76.984 29.436 76.678 30.81 76.678 32.658C76.678 34.506 76.984 35.886 77.596 36.798C78.208 37.698 79.174 38.148 80.494 38.148ZM98.388 36.924C98.808 37.38 99.264 37.704 99.756 37.896C100.248 38.088 100.764 38.184 101.304 38.184C101.82 38.184 102.294 38.082 102.726 37.878C103.158 37.674 103.53 37.35 103.842 36.906C104.166 36.45 104.418 35.862 104.598 35.142C104.778 34.422 104.868 33.546 104.868 32.514C104.868 31.53 104.796 30.702 104.652 30.03C104.508 29.358 104.304 28.818 104.04 28.41C103.788 27.99 103.482 27.69 103.122 27.51C102.762 27.33 102.36 27.24 101.916 27.24C101.1 27.24 100.428 27.39 99.9 27.69C99.372 27.99 98.868 28.428 98.388 29.004V36.924ZM98.046 25.638C98.778 24.858 99.606 24.222 100.53 23.73C101.466 23.226 102.576 22.974 103.86 22.974C104.832 22.974 105.732 23.19 106.56 23.622C107.388 24.054 108.102 24.678 108.702 25.494C109.302 26.31 109.77 27.312 110.106 28.5C110.454 29.676 110.628 31.014 110.628 32.514C110.628 33.918 110.43 35.214 110.034 36.402C109.65 37.59 109.104 38.622 108.396 39.498C107.7 40.374 106.86 41.058 105.876 41.55C104.904 42.042 103.824 42.288 102.636 42.288C101.664 42.288 100.848 42.15 100.188 41.874C99.528 41.598 98.928 41.226 98.388 40.758V47.922H92.808V23.334H96.264C96.96 23.334 97.416 23.646 97.632 24.27L98.046 25.638ZM119.06 36.924C119.48 37.38 119.936 37.704 120.428 37.896C120.92 38.088 121.436 38.184 121.976 38.184C122.492 38.184 122.966 38.082 123.398 37.878C123.83 37.674 124.202 37.35 124.514 36.906C124.838 36.45 125.09 35.862 125.27 35.142C125.45 34.422 125.54 33.546 125.54 32.514C125.54 31.53 125.468 30.702 125.324 30.03C125.18 29.358 124.976 28.818 124.712 28.41C124.46 27.99 124.154 27.69 123.794 27.51C123.434 27.33 123.032 27.24 122.588 27.24C121.772 27.24 121.1 27.39 120.572 27.69C120.044 27.99 119.54 28.428 119.06 29.004V36.924ZM118.718 25.638C119.45 24.858 120.278 24.222 121.202 23.73C122.138 23.226 123.248 22.974 124.532 22.974C125.504 22.974 126.404 23.19 127.232 23.622C128.06 24.054 128.774 24.678 129.374 25.494C129.974 26.31 130.442 27.312 130.778 28.5C131.126 29.676 131.3 31.014 131.3 32.514C131.3 33.918 131.102 35.214 130.706 36.402C130.322 37.59 129.776 38.622 129.068 39.498C128.372 40.374 127.532 41.058 126.548 41.55C125.576 42.042 124.496 42.288 123.308 42.288C122.336 42.288 121.52 42.15 120.86 41.874C120.2 41.598 119.6 41.226 119.06 40.758V47.922H113.48V23.334H116.936C117.632 23.334 118.088 23.646 118.304 24.27L118.718 25.638ZM151.612 23.334V42H146.032V32.496C146.032 32.184 146.05 31.848 146.086 31.488C146.122 31.116 146.17 30.738 146.23 30.354C145.942 31.002 145.636 31.548 145.312 31.992C145.288 32.016 145.186 32.16 145.006 32.424C144.838 32.688 144.616 33.03 144.34 33.45C144.076 33.858 143.77 34.32 143.422 34.836C143.086 35.352 142.738 35.88 142.378 36.42C141.538 37.68 140.596 39.102 139.552 40.686C139.444 40.842 139.318 41.004 139.174 41.172C139.042 41.328 138.892 41.472 138.724 41.604C138.556 41.724 138.376 41.826 138.184 41.91C137.992 41.982 137.788 42.018 137.572 42.018H134.152V23.352H139.732V32.856C139.732 33.156 139.714 33.492 139.678 33.864C139.642 34.236 139.594 34.614 139.534 34.998C139.822 34.35 140.128 33.804 140.452 33.36C140.464 33.336 140.56 33.192 140.74 32.928C140.92 32.664 141.142 32.328 141.406 31.92C141.682 31.5 141.988 31.032 142.324 30.516C142.672 30 143.026 29.472 143.386 28.932C144.226 27.672 145.168 26.25 146.212 24.666C146.32 24.51 146.44 24.354 146.572 24.198C146.716 24.03 146.872 23.886 147.04 23.766C147.208 23.634 147.388 23.532 147.58 23.46C147.772 23.376 147.976 23.334 148.192 23.334H151.612ZM169.102 27.762C168.934 27.966 168.772 28.128 168.616 28.248C168.46 28.368 168.238 28.428 167.95 28.428C167.674 28.428 167.422 28.362 167.194 28.23C166.978 28.098 166.732 27.954 166.456 27.798C166.18 27.63 165.856 27.48 165.484 27.348C165.112 27.216 164.65 27.15 164.098 27.15C163.414 27.15 162.82 27.276 162.316 27.528C161.824 27.78 161.416 28.14 161.092 28.608C160.768 29.076 160.528 29.652 160.372 30.336C160.216 31.008 160.138 31.77 160.138 32.622C160.138 34.41 160.48 35.784 161.164 36.744C161.86 37.704 162.814 38.184 164.026 38.184C164.674 38.184 165.184 38.106 165.556 37.95C165.94 37.782 166.264 37.602 166.528 37.41C166.792 37.206 167.032 37.02 167.248 36.852C167.476 36.684 167.758 36.6 168.094 36.6C168.538 36.6 168.874 36.762 169.102 37.086L170.722 39.084C170.146 39.744 169.54 40.284 168.904 40.704C168.268 41.112 167.614 41.436 166.942 41.676C166.282 41.904 165.616 42.06 164.944 42.144C164.272 42.24 163.618 42.288 162.982 42.288C161.842 42.288 160.75 42.072 159.706 41.64C158.674 41.208 157.762 40.584 156.97 39.768C156.19 38.94 155.566 37.926 155.098 36.726C154.642 35.526 154.414 34.158 154.414 32.622C154.414 31.278 154.612 30.024 155.008 28.86C155.416 27.684 156.01 26.67 156.79 25.818C157.582 24.954 158.554 24.276 159.706 23.784C160.87 23.292 162.214 23.046 163.738 23.046C165.202 23.046 166.486 23.28 167.59 23.748C168.694 24.216 169.69 24.9 170.578 25.8L169.102 27.762Z" fill="black"/>
<path d="M84.364 23.712L84.0076 24.6463L84.364 23.712ZM87.352 25.62L86.6449 26.3271L86.65 26.3322L87.352 25.62ZM89.296 28.644L88.3623 29.0024L88.3669 29.0138L89.296 28.644ZM89.296 36.654L88.3643 36.2906L88.3624 36.2957L89.296 36.654ZM87.352 39.696L88.0591 40.4031L87.352 39.696ZM84.364 41.622L84.7204 42.5564L84.7288 42.5531L84.364 41.622ZM76.588 41.622L76.2232 42.5532L76.2348 42.5575L76.588 41.622ZM73.564 39.696L72.8569 40.4031L72.8619 40.4082L72.8671 40.4131L73.564 39.696ZM71.602 36.654L70.6671 37.0092L70.6716 37.0205L71.602 36.654ZM71.602 28.644L70.6716 28.2775L70.6696 28.2825L71.602 28.644ZM73.564 25.62L72.867 24.9028L72.862 24.9078L73.564 25.62ZM76.588 23.712L76.2348 22.7765L76.2316 22.7777L76.588 23.712ZM83.32 36.798L82.4896 36.2408L82.4879 36.2433L83.32 36.798ZM83.32 28.536L82.4879 29.0907L82.4931 29.0983L83.32 28.536ZM77.596 36.798L76.7656 37.3552L76.7691 37.3603L77.596 36.798ZM80.494 24.046C81.8047 24.046 82.9719 24.2513 84.0076 24.6463L84.7204 22.7777C83.4281 22.2847 82.0153 22.046 80.494 22.046V24.046ZM84.0076 24.6463C85.0486 25.0434 85.9228 25.605 86.6449 26.3271L88.0591 24.9129C87.1252 23.979 86.0074 23.2686 84.7204 22.7777L84.0076 24.6463ZM86.65 26.3322C87.3806 27.0524 87.9534 27.9368 88.3624 29.0023L90.2296 28.2857C89.7266 26.9752 89.0034 25.8436 88.054 24.9078L86.65 26.3322ZM88.3669 29.0138C88.781 30.0543 88.998 31.2519 88.998 32.622H90.998C90.998 31.0401 90.747 29.5857 90.2251 28.2742L88.3669 29.0138ZM88.998 32.622C88.998 34.0047 88.7807 35.223 88.3643 36.2907L90.2277 37.0173C90.7473 35.685 90.998 34.2153 90.998 32.622H88.998ZM88.3624 36.2957C87.953 37.3623 87.3789 38.2549 86.6449 38.9889L88.0591 40.4031C89.0051 39.4571 89.727 38.3217 90.2296 37.0123L88.3624 36.2957ZM86.6449 38.9889C85.9208 39.713 85.0437 40.2817 83.9992 40.6909L84.7288 42.5531C86.0123 42.0503 87.1272 41.335 88.0591 40.4031L86.6449 38.9889ZM84.0076 40.6877C82.9719 41.0827 81.8047 41.288 80.494 41.288V43.288C82.0153 43.288 83.4281 43.0493 84.7204 42.5563L84.0076 40.6877ZM80.494 41.288C79.1704 41.288 77.9901 41.0825 76.9412 40.6865L76.2348 42.5575C77.5379 43.0495 78.9616 43.288 80.494 43.288V41.288ZM76.9528 40.6909C75.906 40.2808 75.0126 39.7094 74.2609 38.9789L72.8671 40.4131C73.8194 41.3386 74.942 42.0512 76.2232 42.5531L76.9528 40.6909ZM74.2711 38.9889C73.5352 38.253 72.9539 37.3575 72.5324 36.2875L70.6716 37.0205C71.1861 38.3265 71.9128 39.459 72.8569 40.4031L74.2711 38.9889ZM72.5368 36.2988C72.1302 35.2288 71.918 34.0076 71.918 32.622H69.918C69.918 34.2124 70.1618 35.6792 70.6672 37.0092L72.5368 36.2988ZM71.918 32.622C71.918 31.249 72.13 30.0484 72.5344 29.0055L70.6696 28.2825C70.162 29.5916 69.918 31.043 69.918 32.622H71.918ZM72.5324 29.0105C72.9535 27.9416 73.5334 27.0543 74.266 26.3322L72.862 24.9078C71.9146 25.8417 71.1865 26.9704 70.6716 28.2775L72.5324 29.0105ZM74.2609 26.3371C75.0107 25.6085 75.9012 25.0443 76.9444 24.6463L76.2316 22.7777C74.9468 23.2677 73.8213 23.9755 72.8671 24.9029L74.2609 26.3371ZM76.9412 24.6475C77.9901 24.2515 79.1704 24.046 80.494 24.046V22.046C78.9616 22.046 77.5379 22.2845 76.2348 22.7765L76.9412 24.6475ZM80.494 39.148C82.0402 39.148 83.3299 38.586 84.1521 37.3527L82.4879 36.2433C82.1101 36.81 81.5158 37.148 80.494 37.148V39.148ZM84.1504 37.3552C84.9253 36.2004 85.238 34.5831 85.238 32.658H83.238C83.238 34.4289 82.9387 35.5716 82.4896 36.2408L84.1504 37.3552ZM85.238 32.658C85.238 30.7345 84.9259 29.1193 84.1469 27.9737L82.4931 29.0983C82.9381 29.7527 83.238 30.8855 83.238 32.658H85.238ZM84.1521 27.9813C83.3299 26.748 82.0402 26.186 80.494 26.186V28.186C81.5158 28.186 82.1101 28.524 82.4879 29.0907L84.1521 27.9813ZM80.494 26.186C78.9233 26.186 77.6083 26.7395 76.7691 27.9737L78.4229 29.0983C78.8077 28.5325 79.4247 28.186 80.494 28.186V26.186ZM76.7691 27.9737C75.9901 29.1193 75.678 30.7345 75.678 32.658H77.678C77.678 30.8855 77.9779 29.7527 78.4229 29.0983L76.7691 27.9737ZM75.678 32.658C75.678 34.5831 75.9907 36.2004 76.7656 37.3552L78.4264 36.2408C77.9773 35.5716 77.678 34.4289 77.678 32.658H75.678ZM76.7691 37.3603C77.6083 38.5945 78.9233 39.148 80.494 39.148V37.148C79.4247 37.148 78.8077 36.8015 78.4229 36.2357L76.7691 37.3603ZM98.388 36.924H97.388V37.3144L97.6524 37.6015L98.388 36.924ZM99.756 37.896L100.12 36.9644L99.756 37.896ZM102.726 37.878L102.299 36.9738L102.726 37.878ZM103.842 36.906L103.027 36.3268L103.024 36.3311L103.842 36.906ZM104.652 30.03L103.674 30.2395L104.652 30.03ZM104.04 28.41L103.182 28.9245L103.191 28.939L103.2 28.9533L104.04 28.41ZM103.122 27.51L103.569 26.6156L103.122 27.51ZM99.9 27.69L100.394 28.5595L99.9 27.69ZM98.388 29.004L97.6197 28.3638L97.388 28.6419V29.004H98.388ZM98.046 25.638L97.0888 25.9277L97.5903 27.5848L98.7752 26.3223L98.046 25.638ZM100.53 23.73L101 24.6127L101.004 24.6105L100.53 23.73ZM106.56 23.622L106.097 24.5086L106.56 23.622ZM108.702 25.494L107.896 26.0864H107.896L108.702 25.494ZM110.106 28.5L109.144 28.7722L109.147 28.7838L110.106 28.5ZM110.034 36.402L109.085 36.0858L109.082 36.0944L110.034 36.402ZM108.396 39.498L107.618 38.8694L107.613 38.8759L108.396 39.498ZM105.876 41.55L105.429 40.6556L105.424 40.6578L105.876 41.55ZM100.188 41.874L100.574 40.9514L100.188 41.874ZM98.388 40.758L99.0429 40.0023L97.388 38.568V40.758H98.388ZM98.388 47.922V48.922H99.388V47.922H98.388ZM92.808 47.922H91.808V48.922H92.808V47.922ZM92.808 23.334V22.334H91.808V23.334H92.808ZM97.632 24.27L98.5891 23.9803L98.5834 23.9615L98.577 23.9429L97.632 24.27ZM97.6524 37.6015C98.1577 38.15 98.7361 38.5714 99.3924 38.8276L100.12 36.9644C99.7918 36.8366 99.4583 36.61 99.1235 36.2465L97.6524 37.6015ZM99.3924 38.8276C100.003 39.0658 100.642 39.184 101.304 39.184V37.184C100.885 37.184 100.493 37.1102 100.12 36.9644L99.3924 38.8276ZM101.304 39.184C101.956 39.184 102.577 39.0542 103.153 38.7822L102.299 36.9738C102.011 37.1098 101.684 37.184 101.304 37.184V39.184ZM103.153 38.7822C103.762 38.4946 104.262 38.0472 104.66 37.4809L103.024 36.3311C102.798 36.6528 102.554 36.8534 102.299 36.9738L103.153 38.7822ZM104.657 37.4852C105.073 36.9004 105.367 36.1881 105.568 35.3845L103.628 34.8995C103.469 35.5359 103.259 35.9996 103.027 36.3268L104.657 37.4852ZM105.568 35.3845C105.774 34.5611 105.868 33.5985 105.868 32.514H103.868C103.868 33.4935 103.782 34.2829 103.628 34.8995L105.568 35.3845ZM105.868 32.514C105.868 31.487 105.793 30.5838 105.63 29.8205L103.674 30.2395C103.799 30.8202 103.868 31.573 103.868 32.514H105.868ZM105.63 29.8205C105.47 29.0751 105.231 28.4094 104.88 27.8667L103.2 28.9533C103.377 29.2266 103.546 29.6409 103.674 30.2395L105.63 29.8205ZM104.897 27.8955C104.569 27.348 104.133 26.8974 103.569 26.6156L102.675 28.4044C102.831 28.4825 103.007 28.632 103.182 28.9245L104.897 27.8955ZM103.569 26.6156C103.056 26.3592 102.499 26.24 101.916 26.24V28.24C102.221 28.24 102.467 28.3008 102.675 28.4044L103.569 26.6156ZM101.916 26.24C100.984 26.24 100.128 26.4105 99.406 26.8205L100.394 28.5595C100.728 28.3695 101.216 28.24 101.916 28.24V26.24ZM99.406 26.8205C98.7522 27.192 98.1592 27.7164 97.6197 28.3638L99.1562 29.6442C99.5767 29.1396 99.9917 28.788 100.394 28.5595L99.406 26.8205ZM97.388 29.004V36.924H99.388V29.004H97.388ZM98.7752 26.3223C99.4339 25.6204 100.175 25.0521 101 24.6127L100.06 22.8473C99.0372 23.3919 98.1221 24.0956 97.3168 24.9537L98.7752 26.3223ZM101.004 24.6105C101.767 24.1997 102.707 23.974 103.86 23.974V21.974C102.445 21.974 101.165 22.2523 100.056 22.8495L101.004 24.6105ZM103.86 23.974C104.678 23.974 105.418 24.1542 106.097 24.5086L107.023 22.7354C106.046 22.2258 104.986 21.974 103.86 21.974V23.974ZM106.097 24.5086C106.779 24.8642 107.379 25.3828 107.896 26.0864L109.508 24.9016C108.825 23.9732 107.997 23.2438 107.023 22.7354L106.097 24.5086ZM107.896 26.0864C108.412 26.7873 108.833 27.675 109.144 28.7722L111.068 28.2278C110.707 26.949 110.192 25.8327 109.508 24.9016L107.896 26.0864ZM109.147 28.7838C109.463 29.8498 109.628 31.0895 109.628 32.514H111.628C111.628 30.9385 111.445 29.5022 111.065 28.2162L109.147 28.7838ZM109.628 32.514C109.628 33.8234 109.443 35.0113 109.085 36.0858L110.983 36.7182C111.416 35.4167 111.628 34.0126 111.628 32.514H109.628ZM109.082 36.0944C108.732 37.1783 108.241 38.0987 107.618 38.8694L109.174 40.1266C109.967 39.1453 110.568 38.0017 110.985 36.7096L109.082 36.0944ZM107.613 38.8759C107.006 39.6397 106.28 40.2299 105.429 40.6556L106.323 42.4444C107.44 41.8861 108.394 41.1083 109.179 40.1201L107.613 38.8759ZM105.424 40.6578C104.605 41.0727 103.682 41.288 102.636 41.288V43.288C103.966 43.288 105.203 43.0113 106.328 42.4422L105.424 40.6578ZM102.636 41.288C101.752 41.288 101.076 41.1615 100.574 40.9514L99.8022 42.7966C100.62 43.1385 101.576 43.288 102.636 43.288V41.288ZM100.574 40.9514C100.012 40.7164 99.5025 40.4007 99.0429 40.0023L97.733 41.5137C98.3534 42.0513 99.0443 42.4796 99.8022 42.7966L100.574 40.9514ZM97.388 40.758V47.922H99.388V40.758H97.388ZM98.388 46.922H92.808V48.922H98.388V46.922ZM93.808 47.922V23.334H91.808V47.922H93.808ZM92.808 24.334H96.264V22.334H92.808V24.334ZM96.264 24.334C96.4629 24.334 96.5402 24.3775 96.5633 24.3933C96.5819 24.4061 96.635 24.447 96.687 24.5971L98.577 23.9429C98.4129 23.469 98.13 23.0419 97.6927 22.7427C97.2598 22.4465 96.7611 22.334 96.264 22.334V24.334ZM96.6748 24.5597L97.0888 25.9277L99.0031 25.3483L98.5891 23.9803L96.6748 24.5597ZM119.06 36.924H118.06V37.3144L118.324 37.6015L119.06 36.924ZM120.428 37.896L120.791 36.9644L120.428 37.896ZM123.398 37.878L122.971 36.9738L123.398 37.878ZM124.514 36.906L123.699 36.3268L123.696 36.3311L124.514 36.906ZM125.324 30.03L124.346 30.2395L125.324 30.03ZM124.712 28.41L123.854 28.9245L123.863 28.939L123.872 28.9533L124.712 28.41ZM123.794 27.51L124.241 26.6156L123.794 27.51ZM120.572 27.69L121.066 28.5595L120.572 27.69ZM119.06 29.004L118.292 28.3638L118.06 28.6419V29.004H119.06ZM118.718 25.638L117.761 25.9277L118.262 27.5848L119.447 26.3223L118.718 25.638ZM121.202 23.73L121.672 24.6127L121.676 24.6105L121.202 23.73ZM127.232 23.622L126.769 24.5086L127.232 23.622ZM129.374 25.494L128.568 26.0864H128.568L129.374 25.494ZM130.778 28.5L129.816 28.7722L129.819 28.7838L130.778 28.5ZM130.706 36.402L129.757 36.0858L129.754 36.0944L130.706 36.402ZM129.068 39.498L128.29 38.8694L128.285 38.8759L129.068 39.498ZM126.548 41.55L126.101 40.6556L126.096 40.6578L126.548 41.55ZM120.86 41.874L121.246 40.9514L120.86 41.874ZM119.06 40.758L119.715 40.0023L118.06 38.568V40.758H119.06ZM119.06 47.922V48.922H120.06V47.922H119.06ZM113.48 47.922H112.48V48.922H113.48V47.922ZM113.48 23.334V22.334H112.48V23.334H113.48ZM118.304 24.27L119.261 23.9803L119.255 23.9615L119.249 23.9429L118.304 24.27ZM118.324 37.6015C118.83 38.15 119.408 38.5714 120.064 38.8276L120.791 36.9644C120.464 36.8366 120.13 36.61 119.795 36.2465L118.324 37.6015ZM120.064 38.8276C120.675 39.0658 121.314 39.184 121.976 39.184V37.184C121.557 37.184 121.165 37.1102 120.791 36.9644L120.064 38.8276ZM121.976 39.184C122.627 39.184 123.249 39.0542 123.825 38.7822L122.971 36.9738C122.683 37.1098 122.356 37.184 121.976 37.184V39.184ZM123.825 38.7822C124.434 38.4946 124.934 38.0472 125.332 37.4809L123.696 36.3311C123.47 36.6528 123.226 36.8534 122.971 36.9738L123.825 38.7822ZM125.329 37.4852C125.745 36.9004 126.039 36.1881 126.24 35.3845L124.3 34.8995C124.141 35.5359 123.931 35.9996 123.699 36.3268L125.329 37.4852ZM126.24 35.3845C126.446 34.5611 126.54 33.5985 126.54 32.514H124.54C124.54 33.4935 124.454 34.2829 124.3 34.8995L126.24 35.3845ZM126.54 32.514C126.54 31.487 126.465 30.5838 126.302 29.8205L124.346 30.2395C124.47 30.8202 124.54 31.573 124.54 32.514H126.54ZM126.302 29.8205C126.142 29.0751 125.903 28.4094 125.551 27.8667L123.872 28.9533C124.049 29.2266 124.218 29.6409 124.346 30.2395L126.302 29.8205ZM125.569 27.8955C125.241 27.348 124.805 26.8974 124.241 26.6156L123.347 28.4044C123.503 28.4825 123.679 28.632 123.854 28.9245L125.569 27.8955ZM124.241 26.6156C123.728 26.3592 123.171 26.24 122.588 26.24V28.24C122.893 28.24 123.139 28.3008 123.347 28.4044L124.241 26.6156ZM122.588 26.24C121.656 26.24 120.799 26.4105 120.078 26.8205L121.066 28.5595C121.4 28.3695 121.888 28.24 122.588 28.24V26.24ZM120.078 26.8205C119.424 27.192 118.831 27.7164 118.292 28.3638L119.828 29.6442C120.249 29.1396 120.664 28.788 121.066 28.5595L120.078 26.8205ZM118.06 29.004V36.924H120.06V29.004H118.06ZM119.447 26.3223C120.106 25.6204 120.847 25.0521 121.672 24.6127L120.732 22.8473C119.709 23.3919 118.794 24.0956 117.989 24.9537L119.447 26.3223ZM121.676 24.6105C122.439 24.1997 123.379 23.974 124.532 23.974V21.974C123.117 21.974 121.837 22.2523 120.728 22.8495L121.676 24.6105ZM124.532 23.974C125.35 23.974 126.09 24.1542 126.769 24.5086L127.694 22.7354C126.718 22.2258 125.658 21.974 124.532 21.974V23.974ZM126.769 24.5086C127.451 24.8642 128.051 25.3828 128.568 26.0864L130.179 24.9016C129.497 23.9732 128.669 23.2438 127.694 22.7354L126.769 24.5086ZM128.568 26.0864C129.084 26.7873 129.505 27.675 129.816 28.7722L131.74 28.2278C131.378 26.949 130.864 25.8327 130.179 24.9016L128.568 26.0864ZM129.819 28.7838C130.134 29.8498 130.3 31.0895 130.3 32.514H132.3C132.3 30.9385 132.117 29.5022 131.737 28.2162L129.819 28.7838ZM130.3 32.514C130.3 33.8234 130.115 35.0113 129.757 36.0858L131.655 36.7182C132.088 35.4167 132.3 34.0126 132.3 32.514H130.3ZM129.754 36.0944C129.404 37.1783 128.913 38.0987 128.29 38.8694L129.846 40.1266C130.639 39.1453 131.24 38.0017 131.657 36.7096L129.754 36.0944ZM128.285 38.8759C127.678 39.6397 126.952 40.2299 126.101 40.6556L126.995 42.4444C128.112 41.8861 129.066 41.1083 129.851 40.1201L128.285 38.8759ZM126.096 40.6578C125.277 41.0727 124.353 41.288 123.308 41.288V43.288C124.638 43.288 125.875 43.0113 126.999 42.4422L126.096 40.6578ZM123.308 41.288C122.424 41.288 121.748 41.1615 121.246 40.9514L120.474 42.7966C121.292 43.1385 122.248 43.288 123.308 43.288V41.288ZM121.246 40.9514C120.684 40.7164 120.174 40.4007 119.715 40.0023L118.405 41.5137C119.025 42.0513 119.716 42.4796 120.474 42.7966L121.246 40.9514ZM118.06 40.758V47.922H120.06V40.758H118.06ZM119.06 46.922H113.48V48.922H119.06V46.922ZM114.48 47.922V23.334H112.48V47.922H114.48ZM113.48 24.334H116.936V22.334H113.48V24.334ZM116.936 24.334C117.135 24.334 117.212 24.3775 117.235 24.3933C117.254 24.4061 117.307 24.447 117.359 24.5971L119.249 23.9429C119.085 23.469 118.802 23.0419 118.365 22.7427C117.932 22.4465 117.433 22.334 116.936 22.334V24.334ZM117.347 24.5597L117.761 25.9277L119.675 25.3483L119.261 23.9803L117.347 24.5597ZM151.612 23.334H152.612V22.334H151.612V23.334ZM151.612 42V43H152.612V42H151.612ZM146.032 42H145.032V43H146.032V42ZM146.086 31.488L147.081 31.5875L147.081 31.5843L146.086 31.488ZM146.23 30.354L147.218 30.5084L145.316 29.9479L146.23 30.354ZM145.312 31.992L146.019 32.6991L146.074 32.6442L146.12 32.5815L145.312 31.992ZM145.006 32.424L144.179 31.8607L144.171 31.8738L144.162 31.8871L145.006 32.424ZM144.34 33.45L143.504 32.9008L143.5 32.9067L144.34 33.45ZM143.422 34.836L142.593 34.2769L142.588 34.2836L142.584 34.2903L143.422 34.836ZM142.378 36.42L143.21 36.9747V36.9747L142.378 36.42ZM139.552 40.686L140.374 41.2552L140.38 41.2458L140.387 41.2363L139.552 40.686ZM139.174 41.172L138.414 40.5212L138.41 40.5261L139.174 41.172ZM138.724 41.604L139.305 42.4177L139.324 42.4044L139.342 42.3903L138.724 41.604ZM138.184 41.91L138.535 42.8463L138.56 42.8369L138.585 42.8262L138.184 41.91ZM134.152 42.018H133.152V43.018H134.152V42.018ZM134.152 23.352V22.352H133.152V23.352H134.152ZM139.732 23.352H140.732V22.352H139.732V23.352ZM139.678 33.864L140.673 33.9603V33.9603L139.678 33.864ZM139.534 34.998L138.546 34.8436L140.448 35.4041L139.534 34.998ZM140.452 33.36L141.26 33.9495L141.309 33.882L141.346 33.8072L140.452 33.36ZM140.74 32.928L139.913 32.3647V32.3647L140.74 32.928ZM141.406 31.92L140.57 31.3708L140.566 31.3767L141.406 31.92ZM142.324 30.516L141.495 29.9569L141.49 29.9636L141.486 29.9703L142.324 30.516ZM143.386 28.932L144.218 29.4867H144.218L143.386 28.932ZM146.212 24.666L145.39 24.0968L145.383 24.1062L145.377 24.1157L146.212 24.666ZM146.572 24.198L145.812 23.5472L145.808 23.5521L146.572 24.198ZM147.04 23.766L147.621 24.5797L147.64 24.5664L147.658 24.5523L147.04 23.766ZM147.58 23.46L147.931 24.3963L147.956 24.3869L147.981 24.3762L147.58 23.46ZM150.612 23.334V42H152.612V23.334H150.612ZM151.612 41H146.032V43H151.612V41ZM147.032 42V32.496H145.032V42H147.032ZM147.032 32.496C147.032 32.222 147.048 31.9195 147.081 31.5875L145.091 31.3885C145.052 31.7765 145.032 32.146 145.032 32.496H147.032ZM147.081 31.5843C147.115 31.2325 147.161 30.8739 147.218 30.5084L145.242 30.1996C145.179 30.6021 145.128 30.9995 145.09 31.3917L147.081 31.5843ZM145.316 29.9479C145.049 30.5487 144.776 31.0294 144.504 31.4025L146.12 32.5815C146.495 32.0666 146.835 31.4553 147.144 30.7601L145.316 29.9479ZM144.605 31.2849C144.54 31.3499 144.487 31.4224 144.479 31.4325C144.455 31.464 144.429 31.5008 144.401 31.54C144.345 31.6192 144.271 31.727 144.179 31.8607L145.832 32.9873C145.921 32.857 145.987 32.7608 146.033 32.696C146.057 32.6632 146.071 32.643 146.079 32.6325C146.083 32.6271 146.082 32.6284 146.078 32.6339C146.075 32.6368 146.07 32.6434 146.062 32.6523C146.056 32.6597 146.041 32.6773 146.019 32.6991L144.605 31.2849ZM144.162 31.8871C143.998 32.1453 143.779 32.4828 143.504 32.9008L145.175 33.9992C145.453 33.5772 145.678 33.2307 145.849 32.9609L144.162 31.8871ZM143.5 32.9067C143.24 33.3082 142.938 33.7647 142.593 34.2769L144.251 35.3951C144.601 34.8753 144.911 34.4078 145.179 33.9932L143.5 32.9067ZM142.584 34.2903C142.25 34.8032 141.904 35.3281 141.546 35.8653L143.21 36.9747C143.572 36.4319 143.922 35.9008 144.26 35.3817L142.584 34.2903ZM141.546 35.8653C140.704 37.1271 139.761 38.5506 138.717 40.1357L140.387 41.2363C141.43 39.6534 142.371 38.2329 143.21 36.9747L141.546 35.8653ZM138.73 40.1168C138.644 40.2404 138.54 40.3751 138.414 40.5212L139.933 41.8228C140.096 41.6329 140.243 41.4436 140.374 41.2552L138.73 40.1168ZM138.41 40.5261C138.324 40.6282 138.223 40.7255 138.106 40.8177L139.342 42.3903C139.56 42.2185 139.76 42.0278 139.937 41.8179L138.41 40.5261ZM138.142 40.7903C138.032 40.8694 137.912 40.9372 137.783 40.9938L138.585 42.8262C138.839 42.7148 139.08 42.5786 139.305 42.4177L138.142 40.7903ZM137.833 40.9737C137.759 41.0014 137.674 41.018 137.572 41.018V43.018C137.901 43.018 138.225 42.9626 138.535 42.8463L137.833 40.9737ZM137.572 41.018H134.152V43.018H137.572V41.018ZM135.152 42.018V23.352H133.152V42.018H135.152ZM134.152 24.352H139.732V22.352H134.152V24.352ZM138.732 23.352V32.856H140.732V23.352H138.732ZM138.732 32.856C138.732 33.1172 138.716 33.4203 138.682 33.7677L140.673 33.9603C140.711 33.5637 140.732 33.1948 140.732 32.856H138.732ZM138.682 33.7677C138.648 34.1195 138.603 34.4781 138.546 34.8436L140.522 35.1524C140.585 34.7499 140.635 34.3525 140.673 33.9603L138.682 33.7677ZM140.448 35.4041C140.715 34.8033 140.987 34.3226 141.26 33.9495L139.644 32.7705C139.268 33.2854 138.929 33.8967 138.62 34.5919L140.448 35.4041ZM141.346 33.8072C141.334 33.8314 141.324 33.8489 141.321 33.8538C141.317 33.8609 141.314 33.8656 141.313 33.8668C141.312 33.8691 141.313 33.8676 141.318 33.8603C141.327 33.8461 141.342 33.8229 141.365 33.7887C141.41 33.7211 141.477 33.6224 141.566 33.4913L139.913 32.3647C139.823 32.4976 139.752 32.6029 139.701 32.6793C139.676 32.7167 139.599 32.8292 139.557 32.9128L141.346 33.8072ZM141.566 33.4913C141.752 33.2182 141.979 32.8749 142.245 32.4633L140.566 31.3767C140.305 31.7811 140.087 32.1098 139.913 32.3647L141.566 33.4913ZM142.241 32.4692C142.518 32.0478 142.825 31.5786 143.162 31.0617L141.486 29.9703C141.15 30.4854 140.845 30.9522 140.57 31.3708L142.241 32.4692ZM143.153 31.0751C143.502 30.5576 143.857 30.0281 144.218 29.4867L142.554 28.3773C142.195 28.9159 141.842 29.4424 141.495 29.9569L143.153 31.0751ZM144.218 29.4867C145.059 28.2249 146.002 26.8014 147.047 25.2163L145.377 24.1157C144.333 25.6986 143.392 27.1191 142.554 28.3773L144.218 29.4867ZM147.034 25.2352C147.122 25.1077 147.222 24.9772 147.335 24.8439L145.808 23.5521C145.657 23.7308 145.517 23.9123 145.39 24.0968L147.034 25.2352ZM147.331 24.8488C147.426 24.7377 147.523 24.6496 147.621 24.5797L146.458 22.9523C146.22 23.1224 146.005 23.3223 145.812 23.5472L147.331 24.8488ZM147.658 24.5523C147.748 24.481 147.839 24.4308 147.931 24.3963L147.229 22.5237C146.937 22.6332 146.667 22.787 146.422 22.9797L147.658 24.5523ZM147.981 24.3762C148.042 24.3492 148.109 24.334 148.192 24.334V22.334C147.842 22.334 147.501 22.4028 147.179 22.5438L147.981 24.3762ZM148.192 24.334H151.612V22.334H148.192V24.334ZM169.102 27.762L169.874 28.3977L169.888 28.3807L169.901 28.3632L169.102 27.762ZM168.616 28.248L168.006 27.4554V27.4554L168.616 28.248ZM167.194 28.23L166.673 29.0833L166.683 29.0895L166.693 29.0954L167.194 28.23ZM166.456 27.798L165.936 28.6522L165.95 28.6606L165.964 28.6686L166.456 27.798ZM165.484 27.348L165.15 28.2904V28.2904L165.484 27.348ZM162.316 27.528L161.869 26.6335L161.86 26.638L162.316 27.528ZM161.092 28.608L161.914 29.1772L161.092 28.608ZM160.372 30.336L161.346 30.5621L161.347 30.5584L160.372 30.336ZM161.164 36.744L160.35 37.3243L160.354 37.331L161.164 36.744ZM165.556 37.95L165.943 38.8722L165.95 38.8692L165.957 38.8662L165.556 37.95ZM166.528 37.41L167.116 38.2187L167.128 38.2102L167.14 38.2013L166.528 37.41ZM167.248 36.852L166.655 36.0469L166.644 36.0547L166.634 36.0626L167.248 36.852ZM169.102 37.086L168.284 37.6615L168.304 37.6893L168.325 37.7158L169.102 37.086ZM170.722 39.084L171.476 39.7415L172.029 39.1077L171.499 38.4542L170.722 39.084ZM168.904 40.704L169.444 41.5458L169.455 41.5385L168.904 40.704ZM166.942 41.676L167.269 42.6212L167.278 42.6177L166.942 41.676ZM164.944 42.144L164.82 41.1517L164.811 41.1528L164.803 41.154L164.944 42.144ZM159.706 41.64L159.32 42.5625L159.324 42.564L159.706 41.64ZM156.97 39.768L156.242 40.4537L156.247 40.4591L156.253 40.4645L156.97 39.768ZM155.098 36.726L154.163 37.0812L154.166 37.0893L155.098 36.726ZM155.008 28.86L154.063 28.5322L154.061 28.5379L155.008 28.86ZM156.79 25.818L156.053 25.1423L156.053 25.1427L156.79 25.818ZM159.706 23.784L159.317 22.8629L159.313 22.8644L159.706 23.784ZM170.578 25.8L171.377 26.4012L171.896 25.7118L171.29 25.0977L170.578 25.8ZM168.33 27.1263C168.195 27.2905 168.086 27.394 168.006 27.4554L169.226 29.0406C169.458 28.862 169.673 28.6415 169.874 28.3977L168.33 27.1263ZM168.006 27.4554C168.048 27.4232 168.077 27.4161 168.072 27.4176C168.064 27.4197 168.027 27.428 167.95 27.428V29.428C168.36 29.428 168.83 29.3448 169.226 29.0406L168.006 27.4554ZM167.95 27.428C167.841 27.428 167.763 27.4042 167.695 27.3646L166.693 29.0954C167.081 29.3198 167.507 29.428 167.95 29.428V27.428ZM167.716 27.3767C167.488 27.2375 167.232 27.0877 166.948 26.9274L165.964 28.6686C166.232 28.8203 166.468 28.9585 166.673 29.0833L167.716 27.3767ZM166.976 26.9438C166.63 26.7333 166.242 26.5557 165.819 26.4056L165.15 28.2904C165.471 28.4043 165.73 28.5267 165.936 28.6522L166.976 26.9438ZM165.819 26.4056C165.306 26.2236 164.722 26.15 164.098 26.15V28.15C164.578 28.15 164.918 28.2084 165.15 28.2904L165.819 26.4056ZM164.098 26.15C163.292 26.15 162.538 26.2989 161.869 26.6336L162.763 28.4224C163.102 28.2531 163.537 28.15 164.098 28.15V26.15ZM161.86 26.638C161.217 26.9674 160.685 27.4395 160.27 28.0388L161.914 29.1772C162.147 28.8405 162.431 28.5926 162.772 28.418L161.86 26.638ZM160.27 28.0388C159.859 28.6329 159.575 29.3333 159.397 30.1136L161.347 30.5584C161.481 29.9707 161.678 29.5191 161.914 29.1772L160.27 28.0388ZM159.398 30.1099C159.221 30.8709 159.138 31.7109 159.138 32.622H161.138C161.138 31.8291 161.211 31.1451 161.346 30.5621L159.398 30.1099ZM159.138 32.622C159.138 34.5169 159.497 36.1278 160.35 37.3243L161.979 36.1637C161.463 35.4402 161.138 34.3031 161.138 32.622H159.138ZM160.354 37.331C161.243 38.5571 162.502 39.184 164.026 39.184V37.184C163.126 37.184 162.477 36.8509 161.974 36.157L160.354 37.331ZM164.026 39.184C164.736 39.184 165.397 39.1013 165.943 38.8722L165.169 37.0278C164.972 37.1107 164.612 37.184 164.026 37.184V39.184ZM165.957 38.8662C166.389 38.6769 166.78 38.4632 167.116 38.2187L165.94 36.6013C165.748 36.7408 165.491 36.8871 165.155 37.0338L165.957 38.8662ZM167.14 38.2013C167.404 37.9968 167.645 37.8101 167.862 37.6414L166.634 36.0626C166.419 36.2299 166.18 36.4152 165.917 36.6187L167.14 38.2013ZM167.841 37.6571C167.867 37.638 167.931 37.6 168.094 37.6V35.6C167.586 35.6 167.085 35.73 166.655 36.0469L167.841 37.6571ZM168.094 37.6C168.194 37.6 168.236 37.6179 168.245 37.6223C168.25 37.6247 168.262 37.6299 168.284 37.6615L169.92 36.5105C169.48 35.8851 168.818 35.6 168.094 35.6V37.6ZM168.325 37.7158L169.945 39.7138L171.499 38.4542L169.879 36.4562L168.325 37.7158ZM169.969 38.4265C169.443 39.0285 168.904 39.5059 168.353 39.8695L169.455 41.5385C170.176 41.0621 170.849 40.4595 171.476 39.7415L169.969 38.4265ZM168.364 39.8623C167.788 40.2317 167.202 40.5212 166.606 40.7343L167.278 42.6177C168.026 42.3508 168.748 41.9923 169.444 41.5457L168.364 39.8623ZM166.616 40.7308C166.019 40.9368 165.421 41.0766 164.82 41.1517L165.068 43.1363C165.811 43.0434 166.545 42.8712 167.269 42.6212L166.616 40.7308ZM164.803 41.154C164.174 41.2438 163.568 41.288 162.982 41.288V43.288C163.668 43.288 164.37 43.2362 165.086 43.1339L164.803 41.154ZM162.982 41.288C161.972 41.288 161.01 41.0974 160.088 40.716L159.324 42.564C160.49 43.0466 161.712 43.288 162.982 43.288V41.288ZM160.092 40.7176C159.187 40.3386 158.387 39.7922 157.688 39.0715L156.253 40.4645C157.137 41.3758 158.161 42.0774 159.32 42.5624L160.092 40.7176ZM157.698 39.0823C157.017 38.3592 156.457 37.4589 156.03 36.3627L154.166 37.0893C154.675 38.3931 155.363 39.5208 156.242 40.4537L157.698 39.0823ZM156.033 36.3708C155.628 35.3041 155.414 34.0599 155.414 32.622H153.414C153.414 34.2561 153.657 35.7479 154.163 37.0812L156.033 36.3708ZM155.414 32.622C155.414 31.3774 155.597 30.2332 155.955 29.1821L154.061 28.5379C153.627 29.8148 153.414 31.1786 153.414 32.622H155.414ZM155.953 29.1878C156.32 28.1304 156.847 27.2371 157.528 26.4933L156.053 25.1427C155.174 26.1028 154.512 27.2376 154.063 28.5322L155.953 29.1878ZM157.527 26.4937C158.217 25.7417 159.069 25.1437 160.099 24.7036L159.313 22.8644C158.04 23.4083 156.948 24.1663 156.053 25.1423L157.527 26.4937ZM160.095 24.7051C161.114 24.2747 162.321 24.046 163.738 24.046V22.046C162.107 22.046 160.627 22.3093 159.317 22.8629L160.095 24.7051ZM163.738 24.046C165.097 24.046 166.243 24.2632 167.2 24.6687L167.98 22.8273C166.729 22.2968 165.307 22.046 163.738 22.046V24.046ZM167.2 24.6687C168.177 25.0829 169.065 25.6903 169.866 26.5023L171.29 25.0977C170.315 24.1097 169.211 23.3491 167.98 22.8273L167.2 24.6687ZM169.779 25.1988L168.303 27.1608L169.901 28.3632L171.377 26.4012L169.779 25.1988Z" fill="black" mask="url(#path-2-outside-1_6146_1042)"/>
<g clip-path="url(#clip0_6146_1042)">
<path d="M89.7405 28.0666C89.4416 26.2801 87.6575 25.2032 85.5657 25.5157C85.1694 25.575 84.7773 25.6578 84.3531 25.7353C82.7652 22.57 78.6345 21.8761 76.6996 25.8851C75.7924 25.567 74.862 25.3447 73.8755 25.5431C72.3097 25.8579 71.2702 26.9479 71.1508 28.3895C71.0487 29.6221 71.3579 30.7619 71.9762 31.8668C72.966 33.636 73.9275 35.2313 74.8259 37.0392C75.1346 37.6603 75.2108 38.5624 75.4061 39.2307C76.4748 42.8883 80.025 43.5594 83.0751 42.3015C84.3127 41.7911 84.9261 40.7642 85.2507 39.6038C85.5074 38.6861 85.7004 37.9395 86.0166 37.0392C86.258 36.3517 86.5962 35.4922 86.984 34.8601C87.5804 33.888 88.2555 32.9551 88.8986 32.0062C89.7244 30.7875 89.9738 29.461 89.7405 28.0666Z" fill="black"/>
<path d="M78.7886 33.3175C77.1557 34.591 77.1529 37.3372 78.7832 38.611C79.8911 39.4767 81.4296 39.3624 82.3896 38.3358C83.0384 37.6421 83.3105 36.8425 83.3049 35.6358C83.2927 34.9679 82.9816 34.0581 82.0981 33.3394C81.1197 32.5435 79.7844 32.5409 78.7886 33.3175Z" fill="white"/>
<path d="M73.7387 28.9487C73.2958 29.9514 73.9581 31.3605 75.1021 31.8495C76.0807 32.2677 77.0972 31.8413 77.2967 30.9257C77.3277 30.7837 77.3346 30.6379 77.3553 30.4723C77.3025 29.5538 76.8897 28.7745 75.8863 28.2899C75.013 27.8681 74.0836 28.168 73.7387 28.9487Z" fill="white"/>
<path d="M81.5086 29.5409C80.8981 30.0127 80.0785 30.01 79.487 29.5241C79.0094 29.1317 78.821 28.6334 78.7886 28.29C78.7262 27.3938 78.9957 26.7068 79.4827 26.2832C80.1312 25.7191 81.0421 25.7148 81.6594 26.2727C82.5953 27.1187 82.5196 28.7596 81.5086 29.5409Z" fill="white"/>
<path d="M85.3262 28.152C86.2796 27.7036 87.2303 28.0646 87.5169 28.9487C87.8338 29.9263 87.2175 31.192 86.1361 31.6452C85.7999 31.7861 85.3528 31.8539 84.9841 31.8062C84.2451 31.7106 83.8365 31.1279 83.8365 30.1456C83.8885 29.3991 84.3188 28.6258 85.3262 28.152Z" fill="white"/>
</g>
<defs>
<clipPath id="clip0_6146_1042">
<rect width="19" height="20" fill="white" transform="translate(71 23)"/>
</clipPath>
</defs>
</svg>
